<svg width="192" height="192" viewBox="0 0 192 192" fill="none" xmlns="http://www.w3.org/2000/svg">
  <!-- Background circle -->
  <circle cx="96" cy="96" r="96" fill="url(#gradient)" />
  
  <!-- Guitar neck -->
  <rect x="75" y="45" width="42" height="105" rx="3" fill="#8B4513" />
  <rect x="78" y="45" width="36" height="105" rx="2" fill="#D2691E" />
  
  <!-- Guitar strings -->
  <line x1="82" y1="45" x2="82" y2="150" stroke="#E5E5E5" stroke-width="1" />
  <line x1="88" y1="45" x2="88" y2="150" stroke="#E5E5E5" stroke-width="1" />
  <line x1="94" y1="45" x2="94" y2="150" stroke="#E5E5E5" stroke-width="1" />
  <line x1="104" y1="45" x2="104" y2="150" stroke="#E5E5E5" stroke-width="1" />
  <line x1="110" y1="45" x2="110" y2="150" stroke="#E5E5E5" stroke-width="1" />
  
  <!-- Frets -->
  <rect x="75" y="56" width="42" height="1" fill="#444" />
  <rect x="75" y="68" width="42" height="1" fill="#444" />
  <rect x="75" y="79" width="42" height="1" fill="#444" />
  <rect x="75" y="90" width="42" height="1" fill="#444" />
  
  <!-- Chord fingering dots -->
  <circle cx="82" cy="62" r="3" fill="#2563eb" />
  <circle cx="94" cy="62" r="3" fill="#2563eb" />
  <circle cx="110" cy="73" r="3" fill="#2563eb" />
  
  <!-- Musical note -->
  <g transform="translate(130, 68)">
    <ellipse cx="0" cy="8" rx="5" ry="3" fill="#2563eb" transform="rotate(20)" />
    <rect x="5" y="0" width="1" height="12" fill="#2563eb" />
    <path d="M6 0 C10 -2 14 -1 14 2 L14 6 C14 4 10 3 6 5" fill="#2563eb" />
  </g>
  
  <!-- Book pages effect -->
  <g transform="translate(30, 60)">
    <rect x="0" y="0" width="30" height="38" rx="2" fill="white" stroke="#ddd" stroke-width="1" />
    <rect x="2" y="2" width="26" height="34" rx="1" fill="#f8f9fa" stroke="#e9ecef" stroke-width="0.5" />
    <line x1="4" y1="6" x2="25" y2="6" stroke="#6c757d" stroke-width="0.5" />
    <line x1="4" y1="10" x2="25" y2="10" stroke="#6c757d" stroke-width="0.5" />
    <line x1="4" y1="14" x2="19" y2="14" stroke="#6c757d" stroke-width="0.5" />
  </g>
  
  <!-- Gradient definition -->
  <defs>
    <linearGradient id="gradient" x1="0%" y1="0%" x2="100%" y2="100%">
      <stop offset="0%" style="stop-color:#f0f9ff;stop-opacity:1" />
      <stop offset="100%" style="stop-color:#dbeafe;stop-opacity:1" />
    </linearGradient>
  </defs>
</svg>
