<svg width="512" height="512" viewBox="0 0 512 512" fill="none" xmlns="http://www.w3.org/2000/svg">
  <!-- Background circle -->
  <circle cx="256" cy="256" r="256" fill="url(#gradient)" />
  
  <!-- Guitar neck -->
  <rect x="200" y="120" width="112" height="280" rx="8" fill="#8B4513" />
  <rect x="208" y="120" width="96" height="280" rx="4" fill="#D2691E" />
  
  <!-- Guitar strings -->
  <line x1="220" y1="120" x2="220" y2="400" stroke="#E5E5E5" stroke-width="2" />
  <line x1="235" y1="120" x2="235" y2="400" stroke="#E5E5E5" stroke-width="2" />
  <line x1="250" y1="120" x2="250" y2="400" stroke="#E5E5E5" stroke-width="2" />
  <line x1="277" y1="120" x2="277" y2="400" stroke="#E5E5E5" stroke-width="2" />
  <line x1="292" y1="120" x2="292" y2="400" stroke="#E5E5E5" stroke-width="2" />
  
  <!-- Frets -->
  <rect x="200" y="150" width="112" height="2" fill="#444" />
  <rect x="200" y="180" width="112" height="2" fill="#444" />
  <rect x="200" y="210" width="112" height="2" fill="#444" />
  <rect x="200" y="240" width="112" height="2" fill="#444" />
  
  <!-- Chord fingering dots -->
  <circle cx="220" cy="165" r="8" fill="#2563eb" />
  <circle cx="250" cy="165" r="8" fill="#2563eb" />
  <circle cx="292" cy="195" r="8" fill="#2563eb" />
  
  <!-- Musical note -->
  <g transform="translate(350, 180)">
    <ellipse cx="0" cy="20" rx="12" ry="8" fill="#2563eb" transform="rotate(20)" />
    <rect x="12" y="0" width="3" height="32" fill="#2563eb" />
    <path d="M15 0 C25 -5 35 -3 35 5 L35 15 C35 10 25 8 15 12" fill="#2563eb" />
  </g>
  
  <!-- Book pages effect -->
  <g transform="translate(80, 160)">
    <rect x="0" y="0" width="80" height="100" rx="4" fill="white" stroke="#ddd" stroke-width="2" />
    <rect x="5" y="5" width="70" height="90" rx="2" fill="#f8f9fa" stroke="#e9ecef" stroke-width="1" />
    <line x1="10" y1="15" x2="65" y2="15" stroke="#6c757d" stroke-width="1" />
    <line x1="10" y1="25" x2="65" y2="25" stroke="#6c757d" stroke-width="1" />
    <line x1="10" y1="35" x2="50" y2="35" stroke="#6c757d" stroke-width="1" />
  </g>
  
  <!-- Gradient definition -->
  <defs>
    <linearGradient id="gradient" x1="0%" y1="0%" x2="100%" y2="100%">
      <stop offset="0%" style="stop-color:#f0f9ff;stop-opacity:1" />
      <stop offset="100%" style="stop-color:#dbeafe;stop-opacity:1" />
    </linearGradient>
  </defs>
</svg>
